<?xml version="1.0" encoding="UTF-8" standalone="no"?>
<!-- Created with Inkscape (http://www.inkscape.org/) -->

<svg
   width="512"
   height="512"
   viewBox="0 0 135.46667 135.46667"
   version="1.1"
   id="svg5"
   sodipodi:docname="toolbar.svg"
   inkscape:export-filename="C:\Users\emirc\Desktop\toolbar300x300.png"
   inkscape:export-xdpi="56.25"
   inkscape:export-ydpi="56.25"
   inkscape:version="1.1 (c68e22c387, 2021-05-23)"
   xmlns:inkscape="http://www.inkscape.org/namespaces/inkscape"
   xmlns:sodipodi="http://sodipodi.sourceforge.net/DTD/sodipodi-0.dtd"
   xmlns="http://www.w3.org/2000/svg"
   xmlns:svg="http://www.w3.org/2000/svg">
  <sodipodi:namedview
     id="namedview7"
     pagecolor="#505050"
     bordercolor="#ffffff"
     borderopacity="1"
     inkscape:pageshadow="0"
     inkscape:pageopacity="0"
     inkscape:pagecheckerboard="1"
     inkscape:document-units="px"
     showgrid="false"
     inkscape:zoom="0.88940775"
     inkscape:cx="77.579715"
     inkscape:cy="220.93354"
     inkscape:window-width="1920"
     inkscape:window-height="1027"
     inkscape:window-x="-8"
     inkscape:window-y="-8"
     inkscape:window-maximized="1"
     inkscape:current-layer="layer1" />
  <defs
     id="defs2" />
  <g
     inkscape:label="Layer 1"
     inkscape:groupmode="layer"
     id="layer1">
    <path
       d="M 130.31541,106.64414 71.924259,56.594572 c 2.718325,-5.108017 4.264113,-10.938203 4.264113,-17.12948 0,-20.16832 -16.34643,-36.5147559 -36.51476,-36.5147559 -3.687985,0 -7.250199,0.5477403 -10.605502,1.5660749 l 21.097419,21.09741 c 3.156488,3.1565 3.156488,8.321316 0,11.473753 L 37.296102,49.956991 c -3.156508,3.156501 -8.321307,3.156501 -11.473758,0 L 4.7249329,28.859581 c -1.01835,3.355295 -1.5660749,6.91751 -1.5660749,10.605511 0,20.168307 16.346436,36.514757 36.514754,36.514757 6.191277,0 12.021468,-1.541739 17.12948,-4.264111 l 50.049568,58.391142 c 2.90496,3.38775 7.86284,3.57845 11.01934,0.42201 l 12.86944,-12.86943 c 3.15648,-3.15649 2.96579,-8.11439 -0.422,-11.01934 z"
       id="path247"
       style="fill:#00a7e1;stroke-width:4.05719;fill-opacity:1" />
    <path
       d="M 40.249091,82.349102 C 35.983866,78.085896 31.914432,74.021861 30.703322,69.438384 29.492137,74.021861 25.422051,78.085896 21.157538,82.349102 14.760736,88.741866 7.5080936,95.987096 7.5080936,106.85369 a 23.195902,23.195902 0 1 0 46.3918034,0 c 0,-10.865897 -7.252054,-18.111832 -13.650806,-24.504594 M 17.367076,112.25872 c -1.422274,-0.0483 -6.671322,-9.09575 3.066508,-18.729039 l 6.443908,7.038869 a 0.55082326,0.55082326 0 0 1 -0.04303,0.82197 c -1.537672,1.57707 -8.09164,8.14937 -8.90626,10.42192 -0.168133,0.46908 -0.413712,0.45132 -0.561151,0.44628 m 13.336973,11.92429 a 7.9776091,7.9776091 0 0 1 -7.977666,-7.97767 8.3128804,8.3128804 0 0 1 1.98841,-5.26946 c 1.438472,-1.75897 5.988186,-6.70626 5.988186,-6.70626 0,0 4.480064,5.0199 5.977451,6.68947 a 7.8016999,7.8016999 0 0 1 2.001283,5.28625 7.9776838,7.9776838 0 0 1 -7.977664,7.97767 M 45.97326,111.24606 c -0.17194,0.37603 -0.561984,1.00381 -1.088423,1.02297 -0.938374,0.0342 -1.038637,-0.44665 -1.732218,-1.47313 -1.522724,-2.25338 -14.811437,-16.141626 -17.296978,-18.827593 -2.186275,-2.362428 -0.307867,-4.027951 0.563464,-4.900771 1.09317,-1.095107 4.284093,-4.284061 4.284093,-4.284061 0,0 9.514568,9.027403 13.477977,15.1956 3.96341,6.168195 2.597498,11.505655 1.792085,13.266995"
       style="fill:#00a7e1;stroke-width:0.248715"
       id="path389" />
  </g>
</svg>
